# xmcd
# 
# Track frame offsets:
#     150
#     17300
#     25938
#     36963
#     46388
#     57425
#     70288
#     87150
#     102288
#     110088
#     123700
# 
# Disc length: 1786
# 
# Revision: 1
# Processed by: cddbd v1.5.2PL0 Copyright (c) Steve Scherf et al.
# Submitted via: fre:ac v1.0.27
# 
DISCID=9306f80b
DTITLE=Various Artist - The Very Best Of Country and Western - Volume 1
DYEAR=0
DGENRE=Country
TTITLE0=Kenny Rogers - Something's Burning
TTITLE1=Waylon Jennings - Love's Gonna Live Here
TTITLE2=Patsy Cline - I Cried All The Way To The Alter
TTITLE3=Conway Twitty - Wonder If You Told Her About Me
TTITLE4=Dolly Parton - Honky Tonk Angels
TTITLE5=Lynn Anderson - Rose Garden
TTITLE6=Lynn Anderson - Blue Bayou
TTITLE7=Anne Murray - Both Sides Now
TTITLE8=George Jones - Jambalaya
TTITLE9=George Jones - Cold, Cold Heart
TTITLE10=Willie Nelson - Broken Promises
EXTD=
EXTT0=
EXTT1=
EXTT2=
EXTT3=
EXTT4=
EXTT5=
EXTT6=
EXTT7=
EXTT8=
EXTT9=
EXTT10=
PLAYORDER=
